# xmcd
#
# Track frame offsets:
#	225
#	24600
#	42674
#	63461
#	89798
#	112691
#	134822
#	150059
#	168740
#	189598
#	223984
#	248356
#	293930
#
# Disc length: 4380 seconds
# Revision: 2
# Processed by: cddbd v1.5.2PL0 Copyright (c) Steve Scherf et al.
# Submitted via: dBpowerAMP V12.0
#
DISCID=c111190d
DTITLE=Pat Travers - Best of the Blues Plus Live!
DYEAR=1997
DGENRE=Blues
TTITLE0=Blues Magnet
TTITLE1=Statesboro Blues
TTITLE2=Ice Queen
TTITLE3=Too Much Is Never Enough
TTITLE4=Rock Your Blues Away
TTITLE5=Elaine
TTITLE6=Dusty Blues
TTITLE7=Just Enough Money
TTITLE8=Heat In The Street
TTITLE9=The Pain
TTITLE10=Life In London
TTITLE11=Medley
TTITLE12=Stevie
EXTD=
EXTT0=
EXTT1=
EXTT2=
EXTT3=
EXTT4=
EXTT5=
EXTT6=
EXTT7=
EXTT8=
EXTT9=
EXTT10=
EXTT11=
EXTT12=
PLAYORDER=
